<svg width="633" height="526" viewBox="0 0 633 526" fill="none" xmlns="http://www.w3.org/2000/svg">
<path d="M575.844 121.138L585.304 102.22L559.291 72.6981L545.407 83.3778L504.977 72.6981L458.902 98.7108L478.964 116.409L441.128 122.282L404.512 164.849L425.795 180.181L350.045 227.935L369.193 240.903L361.869 244.641H315.718L188.63 245.633C180.238 246.09 171.313 247.921 162.236 250.744C134.392 256.846 105.557 252.803 80.3072 238.996C52.6163 223.816 32.4774 198.795 23.6286 168.51C14.0168 135.632 30.0364 101.304 59.9395 86.9631C68.3307 89.4805 79.6969 91.0061 91.2157 87.2682C114.101 79.7925 124.78 55.4581 124.78 55.4581C124.78 55.4581 99.912 42.7187 78.8578 49.6605C69.3986 52.7881 61.8466 59.4248 56.3542 65.8326C13.9406 82.7675 -9.47845 129.682 3.6423 174.46C14.0931 210.085 37.741 239.53 70.314 257.38C84.9604 265.39 100.599 270.577 116.618 272.942C91.9022 289.114 70.1615 310.474 58.7952 331.528C45.2931 356.473 34.9948 385.765 35.8339 420.474V525.135H142.936L123.102 492.715L92.5125 481.043V466.626L197.936 361.202L331.509 411.778V525.135H434.644L417.48 496.453L384.831 489.282L402.376 384.85L517.259 340.987L547.696 325.654L568.063 304.829L585.456 264.551L575.997 219.849L615.359 220.383L619.784 190.937L632.752 168.51L575.997 121.214L575.844 121.138Z" fill="#184036"/>
<path d="M516.267 58.3568L560.816 57.8991L581.794 19.8337L565.775 27.3858C567.377 36.8449 562.647 44.7021 545.331 44.7021C528.015 44.7021 521.149 27.0043 521.149 24.9447C521.149 20.6728 527.176 16.7061 527.176 16.7061L516.343 0L505.511 16.7061C505.511 16.7061 511.614 20.2151 511.537 24.9447C511.537 27.0043 505.282 44.7021 487.356 44.7021C469.429 44.7021 465.31 36.8449 466.912 27.3858L450.892 19.8337L471.87 57.8991L516.419 58.3568H516.267Z" fill="#E4A978"/>
<path d="M230.891 482.874L231.348 409.871L205.87 400.412L153.387 451.979L196.716 525.135H281.009L262.777 497.826L230.891 482.874Z" fill="#184036"/>
<path d="M534.651 369.67L420.684 413.227H533.66L534.422 483.103C549.527 471.355 568.14 457.319 578.438 441.986L559.672 396.826L534.728 369.67H534.651Z" fill="#184036"/>
</svg>
