<?xml version="1.0" encoding="UTF-8"?>
<svg id="Camada_1" xmlns="http://www.w3.org/2000/svg" viewBox="0 0 475.74 95.74">
  <defs>
    <style>
      .cls-1 {
        fill: #fff;
      }
    </style>
  </defs>
  <g>
    <path class="cls-1" d="M322.52,13.73c-22.82,0-38.89,14.18-38.89,35.94,0,20.3,15.34,36.14,38.9,36.14,22.07,0,36.88-13.56,36.88-36.16s-15.75-35.92-36.89-35.92ZM322.63,81.49c-15.61.02-29.71-12.25-29.71-31.62,0-17.57,11.96-31.63,29.53-31.63s27.67,14.03,27.67,31.63-10.22,31.6-27.49,31.62Z"/>
    <path class="cls-1" d="M92.53,79.03V15.53c-1.66.02-3.56,0-4.66,0-1.33,0-2.89.04-4.48,0v68.69h42.63v-5.13l-33.49-.07Z"/>
    <rect class="cls-1" x="139.84" y="15.53" width="9.14" height="68.7"/>
    <path class="cls-1" d="M36.07,15.53h-5.67L0,84.19h5.58s5.81-13,6.82-15.39l39.09.04,7.36,15.35h10.14S46.78,37.96,36.07,15.53ZM14.72,63.5L31.16,26.43l17.79,37.13-34.23-.05Z"/>
    <path class="cls-1" d="M374.09,73.17v10.77h5.12s.22-58.63.22-58.63c18.86,22.45,28.05,34.6,47.86,58.63h3.38s.26-68.66.26-68.66h-5.36s-.03,31.33-.03,52.09c-14.02-17.18-42.5-52.09-42.5-52.09h-8.95v57.89Z"/>
    <path class="cls-1" d="M193.3,43.45c-14.12-3.37-18.61-5.23-18.61-12.81s4.91-12.12,15.76-12.12c2.66,0,7.74.59,12.06,1.54,4.6,1.01,8.36,2.38,8.36,2.38l.72-6.63c-7.01-1.46-14.11-2.08-18.92-2.08-15.91,0-25.97,7.61-25.97,19.83,0,11.27,7.63,14.67,20.07,17.94,11.69,3.06,19.72,4.97,19.72,15.61,0,5.16-1.92,13.7-17.2,13.7-2.38,0-8.93-.66-14.46-1.72-4.92-.94-9.03-2.27-9.03-2.27l-.53,6.79c7.55,1.36,15.3,2.19,21.17,2.19,18.44,0,27.61-9.5,27.61-22.25,0-13.49-8.75-17.37-20.76-20.11Z"/>
    <path class="cls-1" d="M250.41,43.45c-14.12-3.37-18.61-5.23-18.61-12.81s4.91-12.12,15.76-12.12c2.66,0,7.74.59,12.06,1.54,4.6,1.01,8.36,2.38,8.36,2.38l.72-6.63c-7.01-1.46-14.11-2.08-18.92-2.08-15.91,0-25.97,7.61-25.97,19.83,0,11.27,7.63,14.67,20.07,17.94,11.69,3.06,19.72,4.97,19.72,15.61,0,5.16-1.92,13.7-17.2,13.7-2.38,0-8.93-.66-14.46-1.72-4.92-.94-9.03-2.27-9.03-2.27l-.53,6.79c7.55,1.36,15.3,2.19,21.17,2.19,18.44,0,27.61-9.5,27.61-22.25,0-13.49-8.75-17.37-20.76-20.11Z"/>
  </g>
  <path class="cls-1" d="M460.76,0c8.42,0,14.98,6.86,14.98,15.28s-6.56,15.28-14.98,15.28-14.98-6.86-14.98-15.28,6.56-15.28,14.98-15.28ZM460.76,28.48c7.24,0,12.91-5.88,12.91-13.2s-5.67-13.2-12.91-13.2-12.91,5.88-12.91,13.2,5.63,13.2,12.91,13.2ZM460.89,17.01h-2.62v5.71h-2.37V7.62h5.97c2.88,0,4.57,2.24,4.57,4.82,0,2.2-1.19,3.85-3.3,4.4l3.47,5.88h-2.71c-.97-1.9-1.99-3.81-3-5.71ZM461.57,15.07c1.48,0,2.41-1.14,2.41-2.62s-.93-2.84-2.41-2.84h-3.3v5.46h3.3Z"/>
</svg>